<svg width="70" height="70" viewBox="0 0 50 50" enable-background="new 0 0 50 50" xmlns="http://www.w3.org/2000/svg" class="svg-logo-mm">

 <g>
  <title>background</title>
  <rect fill="none" id="canvas_background" height="402" width="582" y="-1" x="-1"/>
 </g>
 <g>
  <title>Layer 1</title>
  <g id="svg_1">
   <polygon fill="#ffffff" id="svg_2" points="20.119 22.094 13.965 22.094 13.965 18.979 18.396 18.979 18.396 17.273 13.965 17.273 13.965 14.16 20.119 14.16 20.119 12.454 12.148 12.454 12.148 23.8 20.119 23.8 "/>
   <path fill="#ffffff" id="svg_3" d="m19.976999,27.024c-0.593,-0.583 -1.343,-0.823 -2.601,-0.823l-0.002001,0l-1.888,0l-0.002,0c-1.258,0 -2.009,0.24 -2.602,0.823c-0.58,0.555 -0.798,1.287001 -0.798,2.579l0,4.542c0,1.288998 0.218,2.024998 0.798,2.585999c0.593,0.576 1.344,0.813999 2.602,0.813999l0.002,0l1.888,0l0.002001,0c1.257999,0 2.007999,-0.237999 2.601,-0.813999c0.58,-0.561001 0.799,-1.297001 0.799,-2.585999l0,-4.542c-0.000999,-1.291 -0.219,-2.024 -0.799,-2.579zm-1.018,6.779001c0,1.054001 -0.067999,1.408001 -0.343,1.701c-0.269999,0.271999 -0.588999,0.335999 -1.695999,0.335999l-0.98,0c-1.106999,0 -1.427,-0.063 -1.695999,-0.335999c-0.275001,-0.292999 -0.343,-0.646999 -0.343,-1.701l0,-3.854c0,-1.061001 0.067,-1.416 0.343,-1.704c0.27,-0.268 0.589,-0.339001 1.695999,-0.339001l0.979001,0c1.106998,0 1.427,0.071001 1.695999,0.339001c0.274,0.288 0.343,0.644001 0.343,1.704l0,3.854l0.000999,0z"/>
   <path fill="#ffffff" id="svg_4" d="m29.525,13.277c-0.591999,-0.583 -1.343,-0.823 -2.601,-0.823l-0.001999,0l-4.978003,0l0,11.345999l4.978003,0l0.001999,0c1.257999,0 2.009001,-0.239 2.601,-0.814001c0.58,-0.560999 0.799,-1.296999 0.799,-2.587l0,-4.541998c0,-1.292001 -0.219,-2.025001 -0.799,-2.58zm-1.018,6.778999c0,1.055 -0.066,1.408001 -0.341999,1.702c-0.27,0.272001 -0.589001,0.336 -1.696001,0.336l-2.707001,0l0,-7.934l2.707001,0c1.107,0 1.427,0.07 1.696001,0.338c0.275,0.288 0.341999,0.644 0.341999,1.704l0,3.854z"/>
   <polygon fill="#ffffff" id="svg_5" points="38.891 14.16 38.891 12.454 31.711 12.454 31.711 14.16 34.393 14.16 34.393 22.094 31.711 22.094 31.711 23.8 38.891 23.8 38.891 22.094 36.209 22.094 36.209 14.16 "/>
   <path fill="#ffffff" id="svg_6" d="m48.618999,17.558001l-2.125,-4.604c-0.125999,-0.296 -0.413002,-0.5 -0.746998,-0.5c-0.011002,0 -2.259003,0 -2.269001,0c-0.334003,0 -0.621002,0.204 -0.748001,0.5l-2.124001,4.604c-0.110001,0.241001 -0.183998,0.515001 -0.183998,0.799l0,5.442999l1.816998,0l0,-3.114l4.744999,0l0,3.114l1.816002,0l0,-5.443001c0.001999,-0.284998 -0.070999,-0.557999 -0.181,-0.798998zm-1.633999,1.421l-4.744999,0l0,-0.736l1.924,-4.083l0.896999,0l1.924,4.083l0,0.736z"/>
   <polygon fill="#ffffff" id="svg_7" points="29.195 31.883 24.449 26.201 22.633 26.201 22.633 37.546 24.449 37.546 24.449 28.746 29.195 34.429 29.195 37.546 31.012 37.546 31.012 26.201 29.195 26.201 "/>
   <path fill="#ffffff" id="svg_8" d="m46.176998,31.062c-1.289001,-0.556 -2.653,-1.068001 -2.653,-1.978001c0,-0.625999 0.486,-1.177999 1.098,-1.177999l2.493999,0c0.614002,0 1.100002,0.497 1.100002,1.1l0,0.298l1.784,0l0,-0.239c0,-1.577 -1.294998,-2.863001 -2.884998,-2.863001l-2.422001,0c-1.586002,0 -2.875999,1.295 -2.875999,2.882999c0,2.033001 2.146999,2.872002 3.822998,3.602001c1.290001,0.556 2.653999,1.068001 2.653999,1.978001c0,0.625999 -0.486,1.176998 -1.098999,1.176998l-2.493999,0c-0.612999,0 -1.099998,-0.495998 -1.099998,-1.098999l0,-0.298l-1.785,0l0,0.238998c0,1.577003 1.295998,2.863003 2.884998,2.863003l2.422001,0c1.585999,0 2.875999,-1.295002 2.875999,-2.882999c0.000999,-2.034 -2.146,-2.873001 -3.822002,-3.602001z"/>
   <polygon fill="#ffffff" id="svg_9" points="36.43 31.813 41.266 26.201 38.885 26.201 34.969 31.021 34.969 26.201 33.152 26.201 33.152 37.546 34.969 37.546 34.969 32.727 39.055 37.546 41.487 37.546 "/>
   <polyline fill="#ffffff" id="svg_10" points="8.379 15.326 5.834 18.979 4.361 18.979 1.816 15.326 1.816 23.8 0 23.8 0 12.454 1.816 12.454 5.099 17.164 8.379 12.454 10.196 12.454 10.196 23.8 8.379 23.8 8.379 15.326 "/>
   <polyline fill="#ffffff" id="svg_11" points="8.379 29.073 5.834 32.727 4.361 32.727 1.816 29.073 1.816 37.546 0 37.546 0 26.201 1.816 26.201 5.099 30.911 8.379 26.201 10.196 26.201 10.196 37.546 8.379 37.546 8.379 29.073 "/>
  </g>
 </g>
</svg>